Renner-600-Semi.ufo
<glyph name="six" format="1">
  <advance width="641"/>
  <unicode hex="0036"/>
  <outline>
    <contour>
      <point x="192" y="241" type="curve" smooth="yes"/>
      <point x="192" y="163"/>
      <point x="247" y="110"/>
      <point x="321" y="110" type="curve" smooth="yes"/>
      <point x="395" y="110"/>
      <point x="450" y="163"/>
      <point x="450" y="241" type="curve" smooth="yes"/>
      <point x="450" y="319"/>
      <point x="395" y="374"/>
      <point x="321" y="374" type="curve" smooth="yes"/>
      <point x="247" y="374"/>
      <point x="192" y="319"/>
    </contour>
    <contour>
      <point x="332" y="698" type="line"/>
      <point x="514" y="698" type="line"/>
      <point x="290" y="434" type="line"/>
      <point x="264" y="425" type="line"/>
      <point x="298" y="460"/>
      <point x="330" y="469"/>
      <point x="378" y="469" type="curve" smooth="yes"/>
      <point x="485" y="469"/>
      <point x="592" y="379"/>
      <point x="592" y="241" type="curve" smooth="yes"/>
      <point x="592" y="77"/>
      <point x="471" y="-14"/>
      <point x="321" y="-14" type="curve" smooth="yes"/>
      <point x="171" y="-14"/>
      <point x="50" y="77"/>
      <point x="50" y="241" type="curve" smooth="yes"/>
      <point x="50" y="311"/>
      <point x="80" y="370"/>
      <point x="120" y="420" type="curve" smooth="yes"/>
    </contour>
  </outline>
</glyph>
<glyph name="nine" format="1">
  <advance width="641"/>
  <unicode hex="0039"/>
  <outline>
    <contour>
      <point x="450" y="459" type="curve" smooth="yes"/>
      <point x="450" y="537"/>
      <point x="395" y="590"/>
      <point x="321" y="590" type="curve" smooth="yes"/>
      <point x="247" y="590"/>
      <point x="192" y="537"/>
      <point x="192" y="459" type="curve" smooth="yes"/>
      <point x="192" y="381"/>
      <point x="247" y="326"/>
      <point x="321" y="326" type="curve" smooth="yes"/>
      <point x="395" y="326"/>
      <point x="450" y="381"/>
    </contour>
    <contour>
      <point x="309" y="2" type="line"/>
      <point x="127" y="2" type="line"/>
      <point x="351" y="266" type="line"/>
      <point x="378" y="275" type="line"/>
      <point x="344" y="240"/>
      <point x="312" y="231"/>
      <point x="264" y="231" type="curve" smooth="yes"/>
      <point x="157" y="231"/>
      <point x="50" y="321"/>
      <point x="50" y="459" type="curve" smooth="yes"/>
      <point x="50" y="623"/>
      <point x="171" y="714"/>
      <point x="321" y="714" type="curve" smooth="yes"/>
      <point x="471" y="714"/>
      <point x="592" y="623"/>
      <point x="592" y="459" type="curve" smooth="yes"/>
      <point x="592" y="389"/>
      <point x="561" y="330"/>
      <point x="521" y="280" type="curve" smooth="yes"/>
    </contour>
  </outline>
</glyph>
<glyph name="at" format="1">
  <advance width="770"/>
  <unicode hex="0040"/>
  <outline>
    <contour>
      <point x="301" y="320" type="curve" smooth="yes"/>
      <point x="301" y="272"/>
      <point x="321" y="246"/>
      <point x="357" y="246" type="curve" smooth="yes"/>
      <point x="396" y="246"/>
      <point x="444" y="286"/>
      <point x="444" y="366" type="curve" smooth="yes"/>
      <point x="444" y="415"/>
      <point x="419" y="445"/>
      <point x="385" y="445" type="curve" smooth="yes"/>
      <point x="341" y="445"/>
      <point x="301" y="388"/>
    </contour>
    <contour>
      <point x="192" y="314" type="curve" smooth="yes"/>
      <point x="192" y="453"/>
      <point x="288" y="530"/>
      <point x="368" y="530" type="curve" smooth="yes"/>
      <point x="444" y="530"/>
      <point x="480" y="456"/>
      <point x="480" y="372" type="curve" smooth="yes"/>
      <point x="480" y="233"/>
      <point x="414" y="156"/>
      <point x="328" y="156" type="curve" smooth="yes"/>
      <point x="250" y="156"/>
      <point x="192" y="215"/>
    </contour>
    <contour>
      <point x="18" y="320" type="curve" smooth="yes"/>
      <point x="18" y="544"/>
      <point x="187" y="722"/>
      <point x="415" y="722" type="curve" smooth="yes"/>
      <point x="621" y="722"/>
      <point x="752" y="554"/>
      <point x="752" y="390" type="curve" smooth="yes"/>
      <point x="752" y="212"/>
      <point x="642" y="132"/>
      <point x="554" y="132" type="curve" smooth="yes"/>
      <point x="484" y="132"/>
      <point x="436" y="192"/>
      <point x="446" y="258" type="curve"/>
      <point x="442" y="288" type="line"/>
      <point x="472" y="520" type="line"/>
      <point x="580" y="520" type="line"/>
      <point x="543" y="292" type="line" smooth="yes"/>
      <point x="542" y="285"/>
      <point x="541" y="274"/>
      <point x="541" y="266" type="curve" smooth="yes"/>
      <point x="541" y="242"/>
      <point x="547" y="228"/>
      <point x="568" y="228" type="curve" smooth="yes"/>
      <point x="594" y="228"/>
      <point x="648" y="272"/>
      <point x="648" y="390" type="curve" smooth="yes"/>
      <point x="648" y="518"/>
      <point x="569" y="632"/>
      <point x="415" y="632" type="curve" smooth="yes"/>
      <point x="235" y="632"/>
      <point x="122" y="498"/>
      <point x="122" y="320" type="curve" smooth="yes"/>
      <point x="122" y="166"/>
      <point x="205" y="63"/>
      <point x="363" y="63" type="curve" smooth="yes"/>
      <point x="433" y="63"/>
      <point x="506" y="70"/>
      <point x="566" y="108" type="curve"/>
      <point x="618" y="31" type="line"/>
      <point x="558" y="-3"/>
      <point x="471" y="-24"/>
      <point x="365" y="-24" type="curve" smooth="yes"/>
      <point x="143" y="-24"/>
      <point x="18" y="121"/>
    </contour>
  </outline>
</glyph>
<glyph name="A" format="1">
  <advance width="712"/>
  <unicode hex="0041"/>
  <outline>
    <contour>
      <point x="173" y="158" type="line"/>
      <point x="190" y="272" type="line"/>
      <point x="527" y="272" type="line"/>
      <point x="543" y="158" type="line"/>
    </contour>
    <contour>
      <point x="356" y="472" type="line"/>
      <point x="252" y="231" type="line"/>
      <point x="255" y="199" type="line"/>
      <point x="163" y="0" type="line"/>
      <point x="0" y="0" type="line"/>
      <point x="356" y="742" type="line"/>
      <point x="712" y="0" type="line"/>
      <point x="549" y="0" type="line"/>
      <point x="460" y="192" type="line"/>
      <point x="461" y="229" type="line"/>
    </contour>
  </outline>
</glyph>
<glyph name="M" format="1">
  <advance width="866"/>
  <unicode hex="004D"/>
  <outline>
    <contour>
      <point x="623" y="492" type="line"/>
      <point x="726" y="735" type="line"/>
      <point x="832" y="0" type="line"/>
      <point x="680" y="0" type="line"/>
    </contour>
    <contour>
      <point x="140" y="735" type="line"/>
      <point x="243" y="492" type="line"/>
      <point x="186" y="0" type="line"/>
      <point x="36" y="0" type="line"/>
    </contour>
    <contour>
      <point x="726" y="735" type="line"/>
      <point x="726" y="530" type="line"/>
      <point x="434" y="65" type="line"/>
      <point x="140" y="530" type="line"/>
      <point x="140" y="735" type="line"/>
      <point x="434" y="284" type="line"/>
    </contour>
  </outline>
</glyph>
<glyph name="i" format="1">
  <advance width="271"/>
  <unicode hex="0069"/>
  <outline>
    <contour>
      <point x="58" y="638" type="curve" smooth="yes"/>
      <point x="58" y="680"/>
      <point x="92" y="712"/>
      <point x="136" y="712" type="curve" smooth="yes"/>
      <point x="180" y="712"/>
      <point x="214" y="680"/>
      <point x="214" y="638" type="curve" smooth="yes"/>
      <point x="214" y="596"/>
      <point x="180" y="564"/>
      <point x="136" y="564" type="curve" smooth="yes"/>
      <point x="92" y="564"/>
      <point x="58" y="596"/>
    </contour>
    <contour>
      <point x="72" y="460" type="line"/>
      <point x="198" y="460" type="line"/>
      <point x="198" y="0" type="line"/>
      <point x="72" y="0" type="line"/>
    </contour>
  </outline>
</glyph>
<glyph name="s" format="1">
  <advance width="440"/>
  <unicode hex="0073"/>
  <outline>
    <contour>
      <point x="103" y="170" type="line"/>
      <point x="139" y="116"/>
      <point x="188" y="87"/>
      <point x="228" y="87" type="curve" smooth="yes"/>
      <point x="262" y="87"/>
      <point x="283" y="98"/>
      <point x="283" y="126" type="curve" smooth="yes"/>
      <point x="283" y="165"/>
      <point x="220" y="179"/>
      <point x="166" y="202" type="curve" smooth="yes"/>
      <point x="105" y="229"/>
      <point x="50" y="261"/>
      <point x="50" y="340" type="curve" smooth="yes"/>
      <point x="50" y="424"/>
      <point x="126" y="470"/>
      <point x="218" y="470" type="curve" smooth="yes"/>
      <point x="306" y="470"/>
      <point x="376" y="426"/>
      <point x="410" y="374" type="curve"/>
      <point x="336" y="310" type="line"/>
      <point x="306" y="346"/>
      <point x="257" y="372"/>
      <point x="220" y="372" type="curve" smooth="yes"/>
      <point x="190" y="372"/>
      <point x="171" y="362"/>
      <point x="171" y="337" type="curve" smooth="yes"/>
      <point x="171" y="303"/>
      <point x="232" y="290"/>
      <point x="288" y="268" type="curve" smooth="yes"/>
      <point x="353" y="242"/>
      <point x="414" y="206"/>
      <point x="414" y="130" type="curve" smooth="yes"/>
      <point x="414" y="26"/>
      <point x="338" y="-17"/>
      <point x="230" y="-17" type="curve" smooth="yes"/>
      <point x="146" y="-17"/>
      <point x="72" y="22"/>
      <point x="23" y="104" type="curve"/>
    </contour>
  </outline>
</glyph>
<glyph name="y" format="1">
  <advance width="496"/>
  <unicode hex="0079"/>
  <outline>
    <contour>
      <point x="503" y="460" type="line"/>
      <point x="203" y="-220" type="line"/>
      <point x="70" y="-220" type="line"/>
      <point x="186" y="46" type="line"/>
      <point x="-7" y="460" type="line"/>
      <point x="139" y="460" type="line"/>
      <point x="286" y="93" type="line"/>
      <point x="222" y="96" type="line"/>
      <point x="368" y="460" type="line"/>
    </contour>
  </outline>
</glyph>
<glyph name="braceright" format="1">
  <advance width="372"/>
  <unicode hex="007D"/>
  <outline>
    <contour>
      <point x="138" y="-45" type="curve" smooth="yes"/>
      <point x="138" y="90" type="line" smooth="yes"/>
      <point x="138" y="179"/>
      <point x="141" y="300"/>
      <point x="272" y="300" type="curve"/>
      <point x="272" y="280" type="line"/>
      <point x="141" y="280"/>
      <point x="138" y="401"/>
      <point x="138" y="490" type="curve" smooth="yes"/>
      <point x="138" y="625" type="line" smooth="yes"/>
      <point x="138" y="651"/>
      <point x="120" y="675"/>
      <point x="90" y="675" type="curve" smooth="yes"/>
      <point x="56" y="675" type="line"/>
      <point x="56" y="780" type="line"/>
      <point x="136" y="780" type="line" smooth="yes"/>
      <point x="206" y="780"/>
      <point x="280" y="739"/>
      <point x="280" y="640" type="curve" smooth="yes"/>
      <point x="280" y="448" type="line" smooth="yes"/>
      <point x="280" y="372"/>
      <point x="298" y="348"/>
      <point x="336" y="338" type="curve"/>
      <point x="336" y="242" type="line"/>
      <point x="298" y="232"/>
      <point x="280" y="208"/>
      <point x="280" y="132" type="curve" smooth="yes"/>
      <point x="280" y="-60" type="line" smooth="yes"/>
      <point x="280" y="-159"/>
      <point x="206" y="-200"/>
      <point x="136" y="-200" type="curve" smooth="yes"/>
      <point x="56" y="-200" type="line"/>
      <point x="56" y="-95" type="line"/>
      <point x="90" y="-95" type="line" smooth="yes"/>
      <point x="120" y="-95"/>
      <point x="138" y="-71"/>
    </contour>
  </outline>
</glyph>
<glyph name="cent" format="1">
  <advance width="580"/>
  <unicode hex="00A2"/>
  <outline>
    <contour>
      <point x="249" y="38" type="line"/>
      <point x="346" y="38" type="line"/>
      <point x="352" y="-112" type="line"/>
      <point x="243" y="-112" type="line"/>
    </contour>
    <contour>
      <point x="192" y="230" type="curve" smooth="yes"/>
      <point x="192" y="148"/>
      <point x="254" y="96"/>
      <point x="326" y="96" type="curve" smooth="yes"/>
      <point x="392" y="96"/>
      <point x="442" y="131"/>
      <point x="468" y="171" type="curve"/>
      <point x="468" y="36" type="line"/>
      <point x="436" y="6"/>
      <point x="380" y="-10"/>
      <point x="317" y="-10" type="curve" smooth="yes"/>
      <point x="169" y="-10"/>
      <point x="59" y="86"/>
      <point x="59" y="230" type="curve" smooth="yes"/>
      <point x="59" y="374"/>
      <point x="169" y="470"/>
      <point x="317" y="470" type="curve" smooth="yes"/>
      <point x="380" y="470"/>
      <point x="436" y="452"/>
      <point x="468" y="424" type="curve"/>
      <point x="468" y="289" type="line"/>
      <point x="442" y="329"/>
      <point x="392" y="364"/>
      <point x="326" y="364" type="curve" smooth="yes"/>
      <point x="254" y="364"/>
      <point x="192" y="308"/>
    </contour>
    <contour>
      <point x="243" y="578" type="line"/>
      <point x="352" y="578" type="line"/>
      <point x="346" y="428" type="line"/>
      <point x="249" y="428" type="line"/>
    </contour>
  </outline>
</glyph>
<glyph name="paragraph" format="1">
  <advance width="643"/>
  <unicode hex="00B6"/>
  <outline>
    <contour>
      <point x="288" y="616" type="line"/>
      <point x="288" y="700" type="line"/>
      <point x="510" y="700" type="line"/>
      <point x="510" y="616" type="line"/>
    </contour>
    <contour>
      <point x="470" y="700" type="line"/>
      <point x="584" y="700" type="line"/>
      <point x="584" y="-220" type="line"/>
      <point x="470" y="-220" type="line"/>
    </contour>
    <contour>
      <point x="288" y="700" type="line"/>
      <point x="402" y="700" type="line"/>
      <point x="402" y="-220" type="line"/>
      <point x="288" y="-220" type="line"/>
    </contour>
    <contour>
      <point x="288" y="270" type="line"/>
      <point x="163" y="270"/>
      <point x="60" y="346"/>
      <point x="60" y="485" type="curve" smooth="yes"/>
      <point x="60" y="624"/>
      <point x="163" y="700"/>
      <point x="288" y="700" type="curve"/>
    </contour>
  </outline>
</glyph>
<glyph name="guillemotright" format="1">
  <advance width="531"/>
  <unicode hex="00BB"/>
  <outline>
    <contour>
      <point x="408" y="275" type="line"/>
      <point x="501" y="255" type="line"/>
      <point x="319" y="6" type="line"/>
      <point x="238" y="65" type="line"/>
    </contour>
    <contour>
      <point x="501" y="255" type="line"/>
      <point x="408" y="225" type="line"/>
      <point x="238" y="445" type="line"/>
      <point x="319" y="504" type="line"/>
    </contour>
    <contour>
      <point x="218" y="275" type="line"/>
      <point x="310" y="255" type="line"/>
      <point x="128" y="6" type="line"/>
      <point x="48" y="65" type="line"/>
    </contour>
    <contour>
      <point x="310" y="255" type="line"/>
      <point x="218" y="225" type="line"/>
      <point x="48" y="445" type="line"/>
      <point x="128" y="504" type="line"/>
    </contour>
  </outline>
</glyph>
<glyph name="onequarter" format="1">
  <advance width="801"/>
  <unicode hex="00BC"/>
  <outline>
    <contour>
      <point x="626" y="700" type="line"/>
      <point x="713" y="700" type="line"/>
      <point x="193" y="0" type="line"/>
      <point x="106" y="0" type="line"/>
    </contour>
    <contour>
      <point x="26" y="584" type="line"/>
      <point x="26" y="662" type="line"/>
      <point x="210" y="702" type="line"/>
      <point x="210" y="274" type="line"/>
      <point x="126" y="274" type="line"/>
      <point x="126" y="610" type="line"/>
    </contour>
    <contour>
      <point x="404" y="77" type="line"/>
      <point x="475" y="142" type="line"/>
      <point x="660" y="142" type="line" smooth="yes"/>
      <point x="670" y="152" type="line" smooth="yes"/>
      <point x="770" y="152" type="line"/>
      <point x="770" y="77" type="line"/>
    </contour>
    <contour>
      <point x="492" y="98" type="line"/>
      <point x="404" y="77" type="line"/>
      <point x="645" y="420" type="line"/>
      <point x="704" y="420" type="line"/>
      <point x="704" y="0" type="line"/>
      <point x="615" y="0" type="line"/>
      <point x="615" y="99" type="line" smooth="yes"/>
      <point x="623" y="105" type="line" smooth="yes"/>
      <point x="623" y="284" type="line"/>
    </contour>
  </outline>
</glyph>
<glyph name="Aring" format="1">
  <advance width="712"/>
  <unicode hex="00C5"/>
  <outline>
    <contour>
      <point x="173" y="158" type="line"/>
      <point x="190" y="272" type="line"/>
      <point x="527" y="272" type="line"/>
      <point x="543" y="158" type="line"/>
    </contour>
    <contour>
      <point x="356" y="472" type="line"/>
      <point x="252" y="231" type="line"/>
      <point x="255" y="199" type="line"/>
      <point x="163" y="0" type="line"/>
      <point x="0" y="0" type="line"/>
      <point x="356" y="742" type="line"/>
      <point x="712" y="0" type="line"/>
      <point x="549" y="0" type="line"/>
      <point x="460" y="192" type="line"/>
      <point x="461" y="229" type="line"/>
    </contour>
    <contour>
      <point x="238" y="800" type="curve" smooth="yes"/>
      <point x="238" y="866"/>
      <point x="292" y="910"/>
      <point x="356" y="910" type="curve" smooth="yes"/>
      <point x="420" y="910"/>
      <point x="474" y="866"/>
      <point x="474" y="800" type="curve" smooth="yes"/>
      <point x="474" y="734"/>
      <point x="420" y="689"/>
      <point x="356" y="689" type="curve" smooth="yes"/>
      <point x="292" y="689"/>
      <point x="238" y="734"/>
    </contour>
    <contour>
      <point x="308" y="800" type="curve" smooth="yes"/>
      <point x="308" y="769"/>
      <point x="331" y="750"/>
      <point x="356" y="750" type="curve" smooth="yes"/>
      <point x="381" y="750"/>
      <point x="404" y="769"/>
      <point x="404" y="800" type="curve" smooth="yes"/>
      <point x="404" y="831"/>
      <point x="381" y="849"/>
      <point x="356" y="849" type="curve" smooth="yes"/>
      <point x="331" y="849"/>
      <point x="308" y="831"/>
    </contour>
  </outline>
</glyph>
<glyph name="Edieresis" format="1">
  <advance width="587"/>
  <unicode hex="00CB"/>
  <outline>
    <contour>
      <point x="168" y="0" type="line"/>
      <point x="168" y="122" type="line"/>
      <point x="522" y="122" type="line"/>
      <point x="522" y="0" type="line"/>
    </contour>
    <contour>
      <point x="168" y="578" type="line"/>
      <point x="168" y="700" type="line"/>
      <point x="522" y="700" type="line"/>
      <point x="522" y="578" type="line"/>
    </contour>
    <contour>
      <point x="168" y="312" type="line"/>
      <point x="168" y="431" type="line"/>
      <point x="502" y="431" type="line"/>
      <point x="502" y="312" type="line"/>
    </contour>
    <contour>
      <point x="76" y="700" type="line"/>
      <point x="216" y="700" type="line"/>
      <point x="216" y="0" type="line"/>
      <point x="76" y="0" type="line"/>
    </contour>
    <contour>
      <point x="337" y="867" type="curve" smooth="yes"/>
      <point x="337" y="911"/>
      <point x="372" y="948"/>
      <point x="420" y="948" type="curve" smooth="yes"/>
      <point x="468" y="948"/>
      <point x="502" y="911"/>
      <point x="502" y="867" type="curve" smooth="yes"/>
      <point x="502" y="823"/>
      <point x="468" y="786"/>
      <point x="420" y="786" type="curve" smooth="yes"/>
      <point x="372" y="786"/>
      <point x="337" y="823"/>
    </contour>
    <contour>
      <point x="106" y="867" type="curve" smooth="yes"/>
      <point x="106" y="911"/>
      <point x="142" y="948"/>
      <point x="190" y="948" type="curve" smooth="yes"/>
      <point x="238" y="948"/>
      <point x="272" y="911"/>
      <point x="272" y="867" type="curve" smooth="yes"/>
      <point x="272" y="823"/>
      <point x="238" y="786"/>
      <point x="190" y="786" type="curve" smooth="yes"/>
      <point x="142" y="786"/>
      <point x="106" y="823"/>
    </contour>
  </outline>
</glyph>
<glyph name="Ocircumflex" format="1">
  <advance width="811"/>
  <unicode hex="00D4"/>
  <outline>
    <contour>
      <point x="188" y="350" type="curve" smooth="yes"/>
      <point x="188" y="216"/>
      <point x="278" y="120"/>
      <point x="406" y="120" type="curve" smooth="yes"/>
      <point x="534" y="120"/>
      <point x="624" y="216"/>
      <point x="624" y="350" type="curve" smooth="yes"/>
      <point x="624" y="484"/>
      <point x="537" y="580"/>
      <point x="406" y="580" type="curve" smooth="yes"/>
      <point x="278" y="580"/>
      <point x="188" y="484"/>
    </contour>
    <contour>
      <point x="36" y="350" type="curve" smooth="yes"/>
      <point x="36" y="562"/>
      <point x="195" y="714"/>
      <point x="406" y="714" type="curve" smooth="yes"/>
      <point x="618" y="714"/>
      <point x="776" y="562"/>
      <point x="776" y="350" type="curve" smooth="yes"/>
      <point x="776" y="138"/>
      <point x="621" y="-18"/>
      <point x="406" y="-18" type="curve" smooth="yes"/>
      <point x="191" y="-18"/>
      <point x="36" y="138"/>
    </contour>
    <contour>
      <point x="412" y="878" type="line"/>
      <point x="302" y="784" type="line"/>
      <point x="252" y="824" type="line"/>
      <point x="412" y="964" type="line"/>
      <point x="572" y="824" type="line"/>
      <point x="522" y="784" type="line"/>
    </contour>
  </outline>
</glyph>
<glyph name="Thorn" format="1">
  <advance width="593"/>
  <unicode hex="00DE"/>
  <outline>
    <contour>
      <point x="298" y="132" type="curve"/>
      <point x="298" y="248" type="line"/>
      <point x="379" y="248"/>
      <point x="430" y="280"/>
      <point x="430" y="352" type="curve" smooth="yes"/>
      <point x="430" y="424"/>
      <point x="379" y="456"/>
      <point x="298" y="456" type="curve"/>
      <point x="298" y="574" type="line"/>
      <point x="463" y="574"/>
      <point x="560" y="490"/>
      <point x="560" y="352" type="curve" smooth="yes"/>
      <point x="560" y="214"/>
      <point x="463" y="132"/>
    </contour>
    <contour>
      <point x="160" y="132" type="line"/>
      <point x="160" y="248" type="line"/>
      <point x="298" y="248" type="line"/>
      <point x="298" y="132" type="line"/>
    </contour>
    <contour>
      <point x="160" y="456" type="line"/>
      <point x="160" y="574" type="line"/>
      <point x="298" y="574" type="line"/>
      <point x="298" y="456" type="line"/>
    </contour>
    <contour>
      <point x="80" y="700" type="line"/>
      <point x="209" y="700" type="line"/>
      <point x="209" y="0" type="line"/>
      <point x="80" y="0" type="line"/>
    </contour>
  </outline>
</glyph>
<glyph name="udieresis" format="1">
  <advance width="560"/>
  <unicode hex="00FC"/>
  <outline>
    <contour>
      <point x="366" y="0" type="line"/>
      <point x="366" y="460" type="line"/>
      <point x="496" y="460" type="line"/>
      <point x="496" y="0" type="line"/>
    </contour>
    <contour>
      <point x="199" y="180" type="line" smooth="yes"/>
      <point x="199" y="120"/>
      <point x="221" y="86"/>
      <point x="275" y="86" type="curve" smooth="yes"/>
      <point x="329" y="86"/>
      <point x="366" y="122"/>
      <point x="366" y="180" type="curve"/>
      <point x="398" y="184" type="line"/>
      <point x="398" y="75"/>
      <point x="334" y="-10"/>
      <point x="226" y="-10" type="curve" smooth="yes"/>
      <point x="118" y="-10"/>
      <point x="64" y="52"/>
      <point x="64" y="166" type="curve" smooth="yes"/>
      <point x="64" y="460" type="line"/>
      <point x="199" y="460" type="line"/>
    </contour>
    <contour>
      <point x="314" y="622" type="curve" smooth="yes"/>
      <point x="314" y="666"/>
      <point x="348" y="704"/>
      <point x="396" y="704" type="curve" smooth="yes"/>
      <point x="444" y="704"/>
      <point x="478" y="666"/>
      <point x="478" y="622" type="curve" smooth="yes"/>
      <point x="478" y="578"/>
      <point x="444" y="542"/>
      <point x="396" y="542" type="curve" smooth="yes"/>
      <point x="348" y="542"/>
      <point x="314" y="578"/>
    </contour>
    <contour>
      <point x="83" y="622" type="curve" smooth="yes"/>
      <point x="83" y="666"/>
      <point x="117" y="704"/>
      <point x="165" y="704" type="curve" smooth="yes"/>
      <point x="213" y="704"/>
      <point x="248" y="666"/>
      <point x="248" y="622" type="curve" smooth="yes"/>
      <point x="248" y="578"/>
      <point x="213" y="542"/>
      <point x="165" y="542" type="curve" smooth="yes"/>
      <point x="117" y="542"/>
      <point x="83" y="578"/>
    </contour>
  </outline>
</glyph>
<glyph name="ydieresis" format="1">
  <advance width="496"/>
  <unicode hex="00FF"/>
  <outline>
    <contour>
      <point x="503" y="460" type="line"/>
      <point x="203" y="-220" type="line"/>
      <point x="70" y="-220" type="line"/>
      <point x="186" y="46" type="line"/>
      <point x="-7" y="460" type="line"/>
      <point x="139" y="460" type="line"/>
      <point x="286" y="93" type="line"/>
      <point x="222" y="96" type="line"/>
      <point x="368" y="460" type="line"/>
    </contour>
    <contour>
      <point x="281" y="612" type="curve" smooth="yes"/>
      <point x="281" y="656"/>
      <point x="316" y="693"/>
      <point x="364" y="693" type="curve" smooth="yes"/>
      <point x="412" y="693"/>
      <point x="446" y="656"/>
      <point x="446" y="612" type="curve" smooth="yes"/>
      <point x="446" y="568"/>
      <point x="412" y="530"/>
      <point x="364" y="530" type="curve" smooth="yes"/>
      <point x="316" y="530"/>
      <point x="281" y="568"/>
    </contour>
    <contour>
      <point x="50" y="612" type="curve" smooth="yes"/>
      <point x="50" y="656"/>
      <point x="86" y="693"/>
      <point x="134" y="693" type="curve" smooth="yes"/>
      <point x="182" y="693"/>
      <point x="216" y="656"/>
      <point x="216" y="612" type="curve" smooth="yes"/>
      <point x="216" y="568"/>
      <point x="182" y="530"/>
      <point x="134" y="530" type="curve" smooth="yes"/>
      <point x="86" y="530"/>
      <point x="50" y="568"/>
    </contour>
  </outline>
</glyph>
<glyph name="cdotaccent" format="1">
  <advance width="488"/>
  <unicode hex="010B"/>
  <outline>
    <contour>
      <point x="164" y="230" type="curve" smooth="yes"/>
      <point x="164" y="150"/>
      <point x="222" y="96"/>
      <point x="296" y="96" type="curve" smooth="yes"/>
      <point x="356" y="96"/>
      <point x="413" y="126"/>
      <point x="439" y="170" type="curve"/>
      <point x="439" y="37" type="line"/>
      <point x="407" y="7"/>
      <point x="356" y="-10"/>
      <point x="288" y="-10" type="curve" smooth="yes"/>
      <point x="140" y="-10"/>
      <point x="30" y="86"/>
      <point x="30" y="230" type="curve" smooth="yes"/>
      <point x="30" y="374"/>
      <point x="140" y="470"/>
      <point x="288" y="470" type="curve" smooth="yes"/>
      <point x="356" y="470"/>
      <point x="407" y="450"/>
      <point x="439" y="424" type="curve"/>
      <point x="439" y="290" type="line"/>
      <point x="413" y="334"/>
      <point x="352" y="364"/>
      <point x="296" y="364" type="curve" smooth="yes"/>
      <point x="222" y="364"/>
      <point x="164" y="306"/>
    </contour>
    <contour>
      <point x="192" y="620" type="curve" smooth="yes"/>
      <point x="192" y="664"/>
      <point x="227" y="702"/>
      <point x="275" y="702" type="curve" smooth="yes"/>
      <point x="323" y="702"/>
      <point x="357" y="664"/>
      <point x="357" y="620" type="curve" smooth="yes"/>
      <point x="357" y="576"/>
      <point x="323" y="539"/>
      <point x="275" y="539" type="curve" smooth="yes"/>
      <point x="227" y="539"/>
      <point x="192" y="576"/>
    </contour>
  </outline>
</glyph>
<glyph name="ebreve" format="1">
  <advance width="555"/>
  <unicode hex="0115"/>
  <outline>
    <contour>
      <point x="96" y="202" type="line"/>
      <point x="96" y="281" type="line"/>
      <point x="503" y="281" type="line"/>
      <point x="520" y="202" type="line"/>
    </contour>
    <contour>
      <point x="384" y="246" type="line" smooth="yes"/>
      <point x="384" y="328"/>
      <point x="352" y="378"/>
      <point x="280" y="378" type="curve" smooth="yes"/>
      <point x="214" y="378"/>
      <point x="166" y="334"/>
      <point x="166" y="256" type="curve"/>
      <point x="164" y="230" type="line"/>
      <point x="164" y="132"/>
      <point x="214" y="90"/>
      <point x="282" y="90" type="curve" smooth="yes"/>
      <point x="340" y="90"/>
      <point x="382" y="113"/>
      <point x="406" y="155" type="curve"/>
      <point x="520" y="120" type="line"/>
      <point x="474" y="42"/>
      <point x="410" y="-10"/>
      <point x="282" y="-10" type="curve" smooth="yes"/>
      <point x="127" y="-10"/>
      <point x="33" y="91"/>
      <point x="33" y="230" type="curve" smooth="yes"/>
      <point x="33" y="247"/>
      <point x="34" y="263"/>
      <point x="37" y="279" type="curve" smooth="yes"/>
      <point x="56" y="392"/>
      <point x="141" y="470"/>
      <point x="282" y="470" type="curve" smooth="yes"/>
      <point x="434" y="470"/>
      <point x="522" y="381"/>
      <point x="522" y="236" type="curve" smooth="yes"/>
      <point x="522" y="228"/>
      <point x="522" y="216"/>
      <point x="520" y="202" type="curve"/>
      <point x="384" y="222" type="line"/>
    </contour>
    <contour>
      <point x="120" y="675" type="curve"/>
      <point x="211" y="675" type="line"/>
      <point x="211" y="642"/>
      <point x="234" y="611"/>
      <point x="282" y="611" type="curve" smooth="yes"/>
      <point x="330" y="611"/>
      <point x="354" y="642"/>
      <point x="354" y="675" type="curve"/>
      <point x="446" y="675" type="line"/>
      <point x="446" y="597"/>
      <point x="387" y="530"/>
      <point x="282" y="530" type="curve" smooth="yes"/>
      <point x="177" y="530"/>
      <point x="120" y="597"/>
    </contour>
  </outline>
</glyph>
<glyph name="Edotaccent" format="1">
  <advance width="587"/>
  <unicode hex="0116"/>
  <outline>
    <contour>
      <point x="168" y="0" type="line"/>
      <point x="168" y="122" type="line"/>
      <point x="522" y="122" type="line"/>
      <point x="522" y="0" type="line"/>
    </contour>
    <contour>
      <point x="168" y="578" type="line"/>
      <point x="168" y="700" type="line"/>
      <point x="522" y="700" type="line"/>
      <point x="522" y="578" type="line"/>
    </contour>
    <contour>
      <point x="168" y="312" type="line"/>
      <point x="168" y="431" type="line"/>
      <point x="502" y="431" type="line"/>
      <point x="502" y="312" type="line"/>
    </contour>
    <contour>
      <point x="76" y="700" type="line"/>
      <point x="216" y="700" type="line"/>
      <point x="216" y="0" type="line"/>
      <point x="76" y="0" type="line"/>
    </contour>
    <contour>
      <point x="216" y="855" type="curve" smooth="yes"/>
      <point x="216" y="899"/>
      <point x="250" y="936"/>
      <point x="298" y="936" type="curve" smooth="yes"/>
      <point x="346" y="936"/>
      <point x="380" y="899"/>
      <point x="380" y="855" type="curve" smooth="yes"/>
      <point x="380" y="811"/>
      <point x="346" y="774"/>
      <point x="298" y="774" type="curve" smooth="yes"/>
      <point x="250" y="774"/>
      <point x="216" y="811"/>
    </contour>
  </outline>
</glyph>
<glyph name="Eogonek" format="1">
  <advance width="587"/>
  <unicode hex="0118"/>
  <outline>
    <contour>
      <point x="168" y="0" type="line"/>
      <point x="168" y="122" type="line"/>
      <point x="522" y="122" type="line"/>
      <point x="522" y="0" type="line"/>
    </contour>
    <contour>
      <point x="168" y="578" type="line"/>
      <point x="168" y="700" type="line"/>
      <point x="522" y="700" type="line"/>
      <point x="522" y="578" type="line"/>
    </contour>
    <contour>
      <point x="168" y="312" type="line"/>
      <point x="168" y="431" type="line"/>
      <point x="502" y="431" type="line"/>
      <point x="502" y="312" type="line"/>
    </contour>
    <contour>
      <point x="76" y="700" type="line"/>
      <point x="216" y="700" type="line"/>
      <point x="216" y="0" type="line"/>
      <point x="76" y="0" type="line"/>
    </contour>
    <contour>
      <point x="504" y="-116" type="curve"/>
      <point x="538" y="-179" type="line"/>
      <point x="523" y="-199"/>
      <point x="492" y="-219"/>
      <point x="440" y="-219" type="curve" smooth="yes"/>
      <point x="370" y="-219"/>
      <point x="322" y="-183"/>
      <point x="322" y="-119" type="curve"/>
      <point x="415" y="-95" type="line"/>
      <point x="415" y="-123"/>
      <point x="428" y="-136"/>
      <point x="454" y="-136" type="curve" smooth="yes"/>
      <point x="476" y="-136"/>
      <point x="490" y="-129"/>
    </contour>
    <contour>
      <point x="415" y="-95" type="curve"/>
      <point x="322" y="-119" type="line"/>
      <point x="322" y="-55"/>
      <point x="388" y="-10"/>
      <point x="458" y="26" type="curve"/>
      <point x="500" y="1" type="line"/>
      <point x="448" y="-25"/>
      <point x="415" y="-63"/>
    </contour>
  </outline>
</glyph>
<glyph name="uni0136" format="1">
  <advance width="659"/>
  <unicode hex="0136"/>
  <outline>
    <contour>
      <point x="76" y="700" type="line"/>
      <point x="224" y="700" type="line"/>
      <point x="224" y="0" type="line"/>
      <point x="76" y="0" type="line"/>
    </contour>
    <contour>
      <point x="473" y="700" type="line"/>
      <point x="644" y="700" type="line"/>
      <point x="354" y="372" type="line"/>
      <point x="658" y="0" type="line"/>
      <point x="484" y="0" type="line"/>
      <point x="182" y="368" type="line"/>
    </contour>
    <contour>
      <point x="328" y="-60" type="line"/>
      <point x="460" y="-92" type="line"/>
      <point x="338" y="-342" type="line"/>
      <point x="240" y="-319" type="line"/>
    </contour>
  </outline>
</glyph>
<glyph name="Lslash" format="1">
  <advance width="504"/>
  <unicode hex="0141"/>
  <outline>
    <contour>
      <point x="100" y="192" type="line"/>
      <point x="88" y="303" type="line"/>
      <point x="395" y="399" type="line"/>
      <point x="406" y="286" type="line"/>
    </contour>
    <contour>
      <point x="102" y="306" type="line"/>
      <point x="198" y="352" type="line"/>
      <point x="374" y="45" type="line"/>
      <point x="278" y="0" type="line"/>
    </contour>
    <contour>
      <point x="47" y="521" type="line"/>
      <point x="73" y="558" type="line"/>
      <point x="257" y="291" type="line"/>
      <point x="231" y="254" type="line"/>
    </contour>
  </outline>
</glyph>
<glyph name="lslash" format="1">
  <advance width="258"/>
  <unicode hex="0142"/>
  <outline>
    <contour>
      <point x="24" y="532" type="line"/>
      <point x="99" y="564" type="line"/>
      <point x="240" y="306" type="line"/>
      <point x="166" y="276" type="line"/>
    </contour>
    <contour>
      <point x="35" y="566" type="line"/>
      <point x="59" y="603" type="line"/>
      <point x="225" y="278" type="line"/>
      <point x="202" y="241" type="line"/>
    </contour>
  </outline>
</glyph>
<glyph name="scircumflex" format="1">
  <advance width="440"/>
  <unicode hex="015D"/>
  <outline>
    <contour>
      <point x="86" y="170" type="line"/>
      <point x="137" y="111"/>
      <point x="188" y="88"/>
      <point x="228" y="88" type="curve" smooth="yes"/>
      <point x="262" y="88"/>
      <point x="283" y="98"/>
      <point x="283" y="126" type="curve" smooth="yes"/>
      <point x="283" y="165"/>
      <point x="220" y="179"/>
      <point x="166" y="202" type="curve" smooth="yes"/>
      <point x="105" y="229"/>
      <point x="46" y="261"/>
      <point x="46" y="340" type="curve" smooth="yes"/>
      <point x="46" y="424"/>
      <point x="126" y="470"/>
      <point x="218" y="470" type="curve" smooth="yes"/>
      <point x="296" y="470"/>
      <point x="366" y="438"/>
      <point x="406" y="396" type="curve"/>
      <point x="349" y="314" type="line"/>
      <point x="317" y="348"/>
      <point x="263" y="370"/>
      <point x="226" y="370" type="curve" smooth="yes"/>
      <point x="192" y="370"/>
      <point x="171" y="361"/>
      <point x="171" y="336" type="curve" smooth="yes"/>
      <point x="171" y="306"/>
      <point x="232" y="290"/>
      <point x="288" y="268" type="curve" smooth="yes"/>
      <point x="353" y="242"/>
      <point x="414" y="206"/>
      <point x="414" y="130" type="curve" smooth="yes"/>
      <point x="414" y="26"/>
      <point x="348" y="-17"/>
      <point x="240" y="-17" type="curve" smooth="yes"/>
      <point x="146" y="-17"/>
      <point x="65" y="28"/>
      <point x="20" y="90" type="curve"/>
    </contour>
    <contour>
      <point x="228" y="619" type="line"/>
      <point x="130" y="530" type="line"/>
      <point x="41" y="592" type="line"/>
      <point x="228" y="732" type="line"/>
      <point x="414" y="592" type="line"/>
      <point x="324" y="530" type="line"/>
    </contour>
  </outline>
</glyph>
<glyph name="dotaccent" format="1">
  <advance width="300"/>
  <unicode hex="02D9"/>
  <outline>
    <contour>
      <point x="68" y="808" type="curve" smooth="yes"/>
      <point x="68" y="852"/>
      <point x="102" y="889"/>
      <point x="150" y="889" type="curve" smooth="yes"/>
      <point x="198" y="889"/>
      <point x="232" y="852"/>
      <point x="232" y="808" type="curve" smooth="yes"/>
      <point x="232" y="764"/>
      <point x="198" y="726"/>
      <point x="150" y="726" type="curve" smooth="yes"/>
      <point x="102" y="726"/>
      <point x="68" y="764"/>
    </contour>
  </outline>
</glyph>
<glyph name="uni203D" format="1">
  <advance width="606"/>
  <unicode hex="203D"/>
  <outline>
    <contour>
      <point x="428" y="486" type="curve" smooth="yes"/>
      <point x="428" y="564"/>
      <point x="374" y="605"/>
      <point x="291" y="605" type="curve" smooth="yes"/>
      <point x="229" y="605"/>
      <point x="173" y="576"/>
      <point x="142" y="518" type="curve"/>
      <point x="52" y="591" type="line"/>
      <point x="98" y="661"/>
      <point x="181" y="716"/>
      <point x="305" y="716" type="curve" smooth="yes"/>
      <point x="435" y="716"/>
      <point x="551" y="632"/>
      <point x="551" y="500" type="curve" smooth="yes"/>
      <point x="551" y="359"/>
      <point x="403" y="282"/>
      <point x="288" y="282" type="curve"/>
      <point x="260" y="347" type="line"/>
      <point x="354" y="347"/>
      <point x="428" y="410"/>
    </contour>
    <contour>
      <point x="211" y="506" type="line"/>
      <point x="342" y="506" type="line"/>
      <point x="317" y="192" type="line"/>
      <point x="236" y="192" type="line"/>
    </contour>
    <contour>
      <point x="197" y="56" type="curve" smooth="yes"/>
      <point x="197" y="100"/>
      <point x="233" y="132"/>
      <point x="281" y="132" type="curve" smooth="yes"/>
      <point x="329" y="132"/>
      <point x="364" y="100"/>
      <point x="364" y="56" type="curve" smooth="yes"/>
      <point x="364" y="12"/>
      <point x="329" y="-22"/>
      <point x="281" y="-22" type="curve" smooth="yes"/>
      <point x="233" y="-22"/>
      <point x="197" y="12"/>
    </contour>
  </outline>
</glyph>
<glyph name="uni2074" format="1">
  <advance width="414"/>
  <unicode hex="2074"/>
  <outline>
    <contour>
      <point x="20" y="357" type="line"/>
      <point x="91" y="422" type="line"/>
      <point x="275" y="422" type="line" smooth="yes"/>
      <point x="285" y="432" type="line" smooth="yes"/>
      <point x="386" y="432" type="line"/>
      <point x="386" y="357" type="line"/>
    </contour>
    <contour>
      <point x="108" y="378" type="line"/>
      <point x="20" y="357" type="line"/>
      <point x="261" y="700" type="line"/>
      <point x="320" y="700" type="line"/>
      <point x="320" y="280" type="line"/>
      <point x="231" y="280" type="line"/>
      <point x="231" y="379" type="line" smooth="yes"/>
      <point x="238" y="385" type="line" smooth="yes"/>
      <point x="238" y="564" type="line"/>
    </contour>
  </outline>
</glyph>
<glyph name="seveneighths" format="1">
  <advance width="833"/>
  <unicode hex="215E"/>
  <outline>
    <contour>
      <point x="580" y="700" type="line"/>
      <point x="685" y="700" type="line"/>
      <point x="165" y="0" type="line"/>
      <point x="60" y="0" type="line"/>
    </contour>
    <contour>
      <point x="25" y="619" type="line"/>
      <point x="25" y="700" type="line"/>
      <point x="354" y="700" type="line"/>
      <point x="151" y="280" type="line"/>
      <point x="59" y="280" type="line"/>
      <point x="226" y="619" type="line"/>
    </contour>
    <contour>
      <point x="520" y="319" type="curve" smooth="yes"/>
      <point x="520" y="386"/>
      <point x="580" y="429"/>
      <point x="654" y="429" type="curve" smooth="yes"/>
      <point x="728" y="429"/>
      <point x="788" y="386"/>
      <point x="788" y="319" type="curve" smooth="yes"/>
      <point x="788" y="246"/>
      <point x="723" y="208"/>
      <point x="654" y="208" type="curve" smooth="yes"/>
      <point x="585" y="208"/>
      <point x="520" y="246"/>
    </contour>
    <contour>
      <point x="600" y="311" type="curve" smooth="yes"/>
      <point x="600" y="279"/>
      <point x="625" y="256"/>
      <point x="654" y="256" type="curve" smooth="yes"/>
      <point x="683" y="256"/>
      <point x="706" y="279"/>
      <point x="706" y="311" type="curve" smooth="yes"/>
      <point x="706" y="343"/>
      <point x="685" y="364"/>
      <point x="654" y="364" type="curve" smooth="yes"/>
      <point x="623" y="364"/>
      <point x="600" y="343"/>
    </contour>
    <contour>
      <point x="504" y="114" type="curve" smooth="yes"/>
      <point x="504" y="199"/>
      <point x="585" y="237"/>
      <point x="654" y="237" type="curve" smooth="yes"/>
      <point x="723" y="237"/>
      <point x="803" y="199"/>
      <point x="803" y="114" type="curve" smooth="yes"/>
      <point x="803" y="41"/>
      <point x="734" y="-9"/>
      <point x="654" y="-9" type="curve" smooth="yes"/>
      <point x="574" y="-9"/>
      <point x="504" y="41"/>
    </contour>
    <contour>
      <point x="590" y="127" type="curve" smooth="yes"/>
      <point x="590" y="85"/>
      <point x="620" y="62"/>
      <point x="654" y="62" type="curve" smooth="yes"/>
      <point x="688" y="62"/>
      <point x="718" y="85"/>
      <point x="718" y="127" type="curve" smooth="yes"/>
      <point x="718" y="163"/>
      <point x="688" y="189"/>
      <point x="654" y="189" type="curve" smooth="yes"/>
      <point x="620" y="189"/>
      <point x="590" y="163"/>
    </contour>
  </outline>
</glyph>
<glyph name="abreve.alt" format="1">
  <advance width="602"/>
  <outline>
    <contour>
      <point x="414" y="460" type="line"/>
      <point x="542" y="460" type="line"/>
      <point x="542" y="0" type="line"/>
      <point x="414" y="0" type="line"/>
    </contour>
    <contour>
      <point x="33" y="230" type="curve" smooth="yes"/>
      <point x="33" y="388"/>
      <point x="138" y="474"/>
      <point x="254" y="474" type="curve" smooth="yes"/>
      <point x="374" y="474"/>
      <point x="448" y="379"/>
      <point x="448" y="230" type="curve" smooth="yes"/>
      <point x="448" y="81"/>
      <point x="374" y="-14"/>
      <point x="254" y="-14" type="curve" smooth="yes"/>
      <point x="138" y="-14"/>
      <point x="33" y="72"/>
    </contour>
    <contour>
      <point x="168" y="230" type="curve" smooth="yes"/>
      <point x="168" y="148"/>
      <point x="224" y="102"/>
      <point x="292" y="102" type="curve" smooth="yes"/>
      <point x="348" y="102"/>
      <point x="412" y="146"/>
      <point x="412" y="230" type="curve" smooth="yes"/>
      <point x="412" y="314"/>
      <point x="348" y="358"/>
      <point x="292" y="358" type="curve" smooth="yes"/>
      <point x="224" y="358"/>
      <point x="168" y="312"/>
    </contour>
    <contour>
      <point x="127" y="684" type="curve"/>
      <point x="218" y="684" type="line"/>
      <point x="218" y="651"/>
      <point x="241" y="620"/>
      <point x="289" y="620" type="curve" smooth="yes"/>
      <point x="337" y="620"/>
      <point x="361" y="651"/>
      <point x="361" y="684" type="curve"/>
      <point x="451" y="684" type="line"/>
      <point x="451" y="606"/>
      <point x="394" y="538"/>
      <point x="289" y="538" type="curve" smooth="yes"/>
      <point x="184" y="538"/>
      <point x="127" y="606"/>
    </contour>
  </outline>
</glyph>
<glyph name="amacron.alt" format="1">
  <advance width="602"/>
  <outline>
    <contour>
      <point x="414" y="460" type="line"/>
      <point x="542" y="460" type="line"/>
      <point x="542" y="0" type="line"/>
      <point x="414" y="0" type="line"/>
    </contour>
    <contour>
      <point x="33" y="230" type="curve" smooth="yes"/>
      <point x="33" y="388"/>
      <point x="138" y="474"/>
      <point x="254" y="474" type="curve" smooth="yes"/>
      <point x="374" y="474"/>
      <point x="448" y="379"/>
      <point x="448" y="230" type="curve" smooth="yes"/>
      <point x="448" y="81"/>
      <point x="374" y="-14"/>
      <point x="254" y="-14" type="curve" smooth="yes"/>
      <point x="138" y="-14"/>
      <point x="33" y="72"/>
    </contour>
    <contour>
      <point x="168" y="230" type="curve" smooth="yes"/>
      <point x="168" y="148"/>
      <point x="224" y="102"/>
      <point x="292" y="102" type="curve" smooth="yes"/>
      <point x="348" y="102"/>
      <point x="412" y="146"/>
      <point x="412" y="230" type="curve" smooth="yes"/>
      <point x="412" y="314"/>
      <point x="348" y="358"/>
      <point x="292" y="358" type="curve" smooth="yes"/>
      <point x="224" y="358"/>
      <point x="168" y="312"/>
    </contour>
    <contour>
      <point x="116" y="532" type="line"/>
      <point x="116" y="646" type="line"/>
      <point x="481" y="646" type="line"/>
      <point x="481" y="532" type="line"/>
    </contour>
  </outline>
</glyph>
<glyph name="atilde.alt" format="1">
  <advance width="602"/>
  <outline>
    <contour>
      <point x="414" y="460" type="line"/>
      <point x="542" y="460" type="line"/>
      <point x="542" y="0" type="line"/>
      <point x="414" y="0" type="line"/>
    </contour>
    <contour>
      <point x="33" y="230" type="curve" smooth="yes"/>
      <point x="33" y="388"/>
      <point x="138" y="474"/>
      <point x="254" y="474" type="curve" smooth="yes"/>
      <point x="374" y="474"/>
      <point x="448" y="379"/>
      <point x="448" y="230" type="curve" smooth="yes"/>
      <point x="448" y="81"/>
      <point x="374" y="-14"/>
      <point x="254" y="-14" type="curve" smooth="yes"/>
      <point x="138" y="-14"/>
      <point x="33" y="72"/>
    </contour>
    <contour>
      <point x="168" y="230" type="curve" smooth="yes"/>
      <point x="168" y="148"/>
      <point x="224" y="102"/>
      <point x="292" y="102" type="curve" smooth="yes"/>
      <point x="348" y="102"/>
      <point x="412" y="146"/>
      <point x="412" y="230" type="curve" smooth="yes"/>
      <point x="412" y="314"/>
      <point x="348" y="358"/>
      <point x="292" y="358" type="curve" smooth="yes"/>
      <point x="224" y="358"/>
      <point x="168" y="312"/>
    </contour>
    <contour>
      <point x="122" y="589" type="line"/>
      <point x="132" y="638"/>
      <point x="180" y="679"/>
      <point x="238" y="679" type="curve" smooth="yes"/>
      <point x="304" y="679"/>
      <point x="314" y="630"/>
      <point x="370" y="630" type="curve" smooth="yes"/>
      <point x="394" y="630"/>
      <point x="413" y="649"/>
      <point x="433" y="681" type="curve"/>
      <point x="496" y="616" type="line"/>
      <point x="480" y="579"/>
      <point x="428" y="534"/>
      <point x="370" y="534" type="curve" smooth="yes"/>
      <point x="315" y="534"/>
      <point x="284" y="586"/>
      <point x="236" y="586" type="curve" smooth="yes"/>
      <point x="197" y="586"/>
      <point x="188" y="549"/>
      <point x="188" y="534" type="curve"/>
    </contour>
  </outline>
</glyph>
